<svg width="28" height="28" viewBox="0 0 28 28" fill="none" xmlns="http://www.w3.org/2000/svg">
<g id="digital loan">
<g id="q">
<g id="Group">
<path id="Vector" d="M24.64 19.81C24.2316 18.5734 23.0066 17.8384 21.7233 18.0484L17.9783 18.6667C16.9166 18.8417 15.8433 18.8067 14.8049 18.5384L13.3816 18.1767C12.8916 18.06 12.5533 17.6167 12.5533 17.115C12.5533 16.5084 13.0433 16.03 13.6383 16.03H14.5949C16.0416 16.03 17.2199 14.8517 17.2199 13.405C17.2199 11.9584 16.0416 10.78 14.5949 10.78H11.0133C9.78828 10.78 8.59828 11.0134 7.46662 11.4684L3.18495 13.1834C2.74162 13.3584 2.51995 13.8717 2.69495 14.315C2.86995 14.7584 3.38328 14.98 3.82662 14.805L8.10828 13.09C9.02995 12.7167 10.0099 12.53 11.0016 12.53H14.5833C15.0616 12.53 15.4583 12.9267 15.4583 13.405C15.4583 13.8834 15.0616 14.28 14.5833 14.28H13.6266C12.0633 14.28 10.7916 15.5517 10.7916 17.115C10.7916 18.4217 11.6783 19.5534 12.9383 19.8684L14.3616 20.23C15.6449 20.545 16.9516 20.6034 18.2466 20.3817L21.9916 19.7634C22.4349 19.6934 22.8316 19.9384 22.9716 20.3467L23.0416 20.545C23.1233 20.79 23.1 21.0467 22.9716 21.2567C22.8433 21.4667 22.6333 21.63 22.3883 21.6767L14.5833 23.24C13.4633 23.4617 12.2733 23.4384 11.1649 23.1584L3.72162 21.3034C3.25495 21.1867 2.77662 21.4667 2.65995 21.945C2.54328 22.4234 2.82328 22.89 3.30162 23.0067L10.7449 24.8617C11.5033 25.0484 12.2849 25.1417 13.0666 25.1417C13.6966 25.1417 14.3266 25.0834 14.9333 24.955L22.7383 23.3917C23.4733 23.24 24.115 22.785 24.4883 22.1317C24.8616 21.4784 24.9433 20.6967 24.71 19.985L24.64 19.7867V19.81Z" fill="white"/>
<path id="Vector_2" d="M8.57484 8.96C9.01817 9.17 9.5315 8.98333 9.7415 8.54C10.9432 6.00833 13.5332 4.375 16.3332 4.375C20.3582 4.375 23.6248 7.64167 23.6248 11.6667C23.6248 12.7633 23.3915 13.8133 22.9248 14.7933C22.7148 15.225 22.9015 15.75 23.3332 15.96C23.4498 16.0183 23.5782 16.0417 23.7065 16.0417C24.0332 16.0417 24.3482 15.855 24.4998 15.54C25.0832 14.3267 25.3748 13.02 25.3748 11.6667C25.3748 6.685 21.3148 2.625 16.3332 2.625C12.8565 2.625 9.64817 4.655 8.1665 7.79333C7.9565 8.225 8.14317 8.75 8.5865 8.96H8.57484Z" fill="white"/>
</g>
</g>
</g>
</svg>
