<svg width="28" height="28" viewBox="0 0 28 28" fill="none" xmlns="http://www.w3.org/2000/svg">
<g id="secure">
<g id="h">
<g id="Group">
<path id="Vector" d="M24.0334 14.5249C24.2667 14.2099 24.2667 13.7899 24.0334 13.4749C20.4517 8.70325 15.0501 8.45825 14.0001 8.45825C8.02675 8.45825 4.59675 12.6349 3.96675 13.4749C3.73341 13.7899 3.73341 14.2099 3.96675 14.5249C7.54841 19.2966 12.9501 19.5416 14.0001 19.5416C19.9734 19.5416 23.4034 15.3649 24.0334 14.5249ZM14.0001 17.7916C13.4751 17.7916 8.94841 17.6866 5.79841 14.0116C6.84841 12.8333 9.68341 10.2083 14.0001 10.2083C14.5251 10.2083 19.0517 10.3133 22.2017 13.9883C21.1517 15.1666 18.3167 17.7916 14.0001 17.7916Z" fill="white"/>
<path id="Vector_2" d="M3.5 9.04167C3.97833 9.04167 4.375 8.645 4.375 8.16667V4.66667C4.375 4.50333 4.50333 4.375 4.66667 4.375H8.16667C8.645 4.375 9.04167 3.97833 9.04167 3.5C9.04167 3.02167 8.645 2.625 8.16667 2.625H4.66667C3.54667 2.625 2.625 3.54667 2.625 4.66667V8.16667C2.625 8.645 3.02167 9.04167 3.5 9.04167Z" fill="white"/>
<path id="Vector_3" d="M23.3333 2.625H19.8333C19.3549 2.625 18.9583 3.02167 18.9583 3.5C18.9583 3.97833 19.3549 4.375 19.8333 4.375H23.3333C23.4966 4.375 23.6249 4.50333 23.6249 4.66667V8.16667C23.6249 8.645 24.0216 9.04167 24.4999 9.04167C24.9783 9.04167 25.3749 8.645 25.3749 8.16667V4.66667C25.3749 3.54667 24.4533 2.625 23.3333 2.625Z" fill="white"/>
<path id="Vector_4" d="M8.16667 23.6249H4.66667C4.50333 23.6249 4.375 23.4966 4.375 23.3333V19.8333C4.375 19.3549 3.97833 18.9583 3.5 18.9583C3.02167 18.9583 2.625 19.3549 2.625 19.8333V23.3333C2.625 24.4533 3.54667 25.3749 4.66667 25.3749H8.16667C8.645 25.3749 9.04167 24.9783 9.04167 24.4999C9.04167 24.0216 8.645 23.6249 8.16667 23.6249Z" fill="white"/>
<path id="Vector_5" d="M24.4999 18.9583C24.0216 18.9583 23.6249 19.3549 23.6249 19.8333V23.3333C23.6249 23.4966 23.4966 23.6249 23.3333 23.6249H19.8333C19.3549 23.6249 18.9583 24.0216 18.9583 24.4999C18.9583 24.9783 19.3549 25.3749 19.8333 25.3749H23.3333C24.4533 25.3749 25.3749 24.4533 25.3749 23.3333V19.8333C25.3749 19.3549 24.9783 18.9583 24.4999 18.9583Z" fill="white"/>
<path id="Vector_6" d="M14 11.375C12.5533 11.375 11.375 12.5533 11.375 14C11.375 15.4467 12.5533 16.625 14 16.625C15.4467 16.625 16.625 15.4467 16.625 14C16.625 12.5533 15.4467 11.375 14 11.375ZM14 14.875C13.5217 14.875 13.125 14.4783 13.125 14C13.125 13.5217 13.5217 13.125 14 13.125C14.4783 13.125 14.875 13.5217 14.875 14C14.875 14.4783 14.4783 14.875 14 14.875Z" fill="white"/>
</g>
</g>
</g>
</svg>
